STARTFONT 2.1
FONT -artwiz-drift-medium-r-normal--10-100-75-75-n-60-ISO8859-1
SIZE 10 75 75
FONTBOUNDINGBOX 6 11 0 -2
STARTPROPERTIES 26
FONTNAME_REGISTRY ""
FOUNDRY "artwiz"
FAMILY_NAME "drift"
WEIGHT_NAME "medium"
SLANT "r"
SETWIDTH_NAME "normal"
ADD_STYLE_NAME ""
PIXEL_SIZE 10
POINT_SIZE 100
RESOLUTION_X 75
RESOLUTION_Y 75
SPACING "n"
AVERAGE_WIDTH 60
CHARSET_REGISTRY "ISO8859"
CHARSET_ENCODING "1"
COPYRIGHT "artwiz, fixed by aleczapka"
FACE_NAME "drift"
WEIGHT 10
RESOLUTION 99
X_HEIGHT 6
QUAD_WIDTH 6
_XMBDFED_INFO "Edited with xmbdfed 4.5."
DEFAULT_CHAR 52
FONT_ASCENT 9
FONT_DESCENT 2
_ORIGINAL_FONT_NAME "drift"
ENDPROPERTIES
CHARS 201
STARTCHAR char1
ENCODING 1
SWIDTH 576 0
DWIDTH 6 0
BBX 5 8 0 0
BITMAP
70
88
D8
88
F8
A8
88
70
ENDCHAR
STARTCHAR char2
ENCODING 2
SWIDTH 576 0
DWIDTH 6 0
BBX 5 8 0 0
BITMAP
70
F8
A8
F8
88
D8
F8
70
ENDCHAR
STARTCHAR char3
ENCODING 3
SWIDTH 576 0
DWIDTH 6 0
BBX 5 5 0 2
BITMAP
D8
F8
F8
70
20
ENDCHAR
STARTCHAR char4
ENCODING 4
SWIDTH 576 0
DWIDTH 6 0
BBX 5 5 0 2
BITMAP
20
70
F8
70
20
ENDCHAR
STARTCHAR char5
ENCODING 5
SWIDTH 576 0
DWIDTH 6 0
BBX 5 7 0 1
BITMAP
70
70
F8
F8
A8
20
70
ENDCHAR
STARTCHAR char6
ENCODING 6
SWIDTH 576 0
DWIDTH 6 0
BBX 5 6 0 1
BITMAP
20
70
F8
F8
A8
70
ENDCHAR
STARTCHAR char7
ENCODING 7
SWIDTH 576 0
DWIDTH 6 0
BBX 5 2 0 4
BITMAP
70
88
ENDCHAR
STARTCHAR char8
ENCODING 8
SWIDTH 576 0
DWIDTH 6 0
BBX 5 3 0 3
BITMAP
30
48
80
ENDCHAR
STARTCHAR char17
ENCODING 17
SWIDTH 576 0
DWIDTH 6 0
BBX 3 5 2 2
BITMAP
80
C0
E0
C0
80
ENDCHAR
STARTCHAR char18
ENCODING 18
SWIDTH 576 0
DWIDTH 6 0
BBX 3 5 1 2
BITMAP
20
60
E0
60
20
ENDCHAR
STARTCHAR char19
ENCODING 19
SWIDTH 576 0
DWIDTH 6 0
BBX 3 8 2 1
BITMAP
40
C0
40
40
40
40
E0
40
ENDCHAR
STARTCHAR char20
ENCODING 20
SWIDTH 576 0
DWIDTH 6 0
BBX 3 8 1 1
BITMAP
A0
A0
A0
A0
A0
00
A0
A0
ENDCHAR
STARTCHAR char21
ENCODING 21
SWIDTH 576 0
DWIDTH 6 0
BBX 4 6 1 2
BITMAP
F0
D0
50
50
50
50
ENDCHAR
STARTCHAR char22
ENCODING 22
SWIDTH 576 0
DWIDTH 6 0
BBX 4 7 1 1
BITMAP
70
90
60
90
60
90
E0
ENDCHAR
STARTCHAR char23
ENCODING 23
SWIDTH 576 0
DWIDTH 6 0
BBX 4 2 1 2
BITMAP
F0
F0
ENDCHAR
STARTCHAR char24
ENCODING 24
SWIDTH 576 0
DWIDTH 6 0
BBX 4 7 1 1
BITMAP
20
70
20
20
70
20
F0
ENDCHAR
STARTCHAR char26
ENCODING 26
SWIDTH 576 0
DWIDTH 6 0
BBX 3 4 2 2
BITMAP
40
40
E0
40
ENDCHAR
STARTCHAR char28
ENCODING 28
SWIDTH 576 0
DWIDTH 6 0
BBX 4 3 1 3
BITMAP
80
80
F0
ENDCHAR
STARTCHAR char29
ENCODING 29
SWIDTH 576 0
DWIDTH 6 0
BBX 5 3 0 3
BITMAP
50
F8
50
ENDCHAR
STARTCHAR char30
ENCODING 30
SWIDTH 576 0
DWIDTH 6 0
BBX 5 3 0 3
BITMAP
20
70
F8
ENDCHAR
STARTCHAR char31
ENCODING 31
SWIDTH 576 0
DWIDTH 6 0
BBX 5 3 0 3
BITMAP
F8
70
20
ENDCHAR
STARTCHAR char32
ENCODING 32
SWIDTH 576 0
DWIDTH 6 0
BBX 0 0 0 0
BITMAP
ENDCHAR
STARTCHAR char33
ENCODING 33
SWIDTH 576 0
DWIDTH 6 0
BBX 1 7 2 0
BITMAP
80
80
80
80
80
00
80
ENDCHAR
STARTCHAR char34
ENCODING 34
SWIDTH 576 0
DWIDTH 6 0
BBX 3 3 2 5
BITMAP
A0
A0
A0
ENDCHAR
STARTCHAR char35
ENCODING 35
SWIDTH 576 0
DWIDTH 6 0
BBX 5 7 0 0
BITMAP
50
50
D8
50
D8
50
50
ENDCHAR
STARTCHAR char36
ENCODING 36
SWIDTH 576 0
DWIDTH 6 0
BBX 4 9 1 -1
BITMAP
20
70
A0
A0
60
50
50
E0
40
ENDCHAR
STARTCHAR char37
ENCODING 37
SWIDTH 576 0
DWIDTH 6 0
BBX 6 8 0 -1
BITMAP
08
C8
D0
10
20
2C
4C
40
ENDCHAR
STARTCHAR char38
ENCODING 38
SWIDTH 576 0
DWIDTH 6 0
BBX 5 7 1 0
BITMAP
60
90
60
98
90
90
68
ENDCHAR
STARTCHAR char39
ENCODING 39
SWIDTH 576 0
DWIDTH 6 0
BBX 2 3 2 5
BITMAP
40
40
80
ENDCHAR
STARTCHAR char40
ENCODING 40
SWIDTH 576 0
DWIDTH 6 0
BBX 3 9 2 -1
BITMAP
60
80
80
80
80
80
80
80
60
ENDCHAR
STARTCHAR char41
ENCODING 41
SWIDTH 576 0
DWIDTH 6 0
BBX 3 9 1 -1
BITMAP
C0
20
20
20
20
20
20
20
C0
ENDCHAR
STARTCHAR char42
ENCODING 42
SWIDTH 576 0
DWIDTH 6 0
BBX 4 5 1 1
BITMAP
90
60
F0
60
90
ENDCHAR
STARTCHAR char43
ENCODING 43
SWIDTH 576 0
DWIDTH 6 0
BBX 5 5 1 1
BITMAP
20
20
F8
20
20
ENDCHAR
STARTCHAR char44
ENCODING 44
SWIDTH 576 0
DWIDTH 6 0
BBX 2 4 1 -2
BITMAP
40
40
40
80
ENDCHAR
STARTCHAR char45
ENCODING 45
SWIDTH 576 0
DWIDTH 6 0
BBX 4 1 1 3
BITMAP
F0
ENDCHAR
STARTCHAR char46
ENCODING 46
SWIDTH 576 0
DWIDTH 6 0
BBX 1 2 2 0
BITMAP
80
80
ENDCHAR
STARTCHAR char47
ENCODING 47
SWIDTH 576 0
DWIDTH 6 0
BBX 4 8 1 -1
BITMAP
10
10
20
20
40
40
80
80
ENDCHAR
STARTCHAR char48
ENCODING 48
SWIDTH 576 0
DWIDTH 6 0
BBX 4 7 1 0
BITMAP
60
90
B0
D0
90
90
60
ENDCHAR
STARTCHAR char49
ENCODING 49
SWIDTH 576 0
DWIDTH 6 0
BBX 2 7 2 0
BITMAP
40
C0
40
40
40
40
40
ENDCHAR
STARTCHAR char50
ENCODING 50
SWIDTH 576 0
DWIDTH 6 0
BBX 4 7 1 0
BITMAP
60
90
10
20
40
80
F0
ENDCHAR
STARTCHAR char51
ENCODING 51
SWIDTH 576 0
DWIDTH 6 0
BBX 4 7 1 0
BITMAP
60
90
10
60
10
90
60
ENDCHAR
STARTCHAR char52
ENCODING 52
SWIDTH 576 0
DWIDTH 6 0
BBX 4 7 1 0
BITMAP
90
90
90
70
10
10
10
ENDCHAR
STARTCHAR char53
ENCODING 53
SWIDTH 576 0
DWIDTH 6 0
BBX 4 7 1 0
BITMAP
F0
80
E0
10
10
90
60
ENDCHAR
STARTCHAR char54
ENCODING 54
SWIDTH 576 0
DWIDTH 6 0
BBX 4 7 1 0
BITMAP
60
80
E0
90
90
90
60
ENDCHAR
STARTCHAR char55
ENCODING 55
SWIDTH 576 0
DWIDTH 6 0
BBX 4 7 1 0
BITMAP
F0
10
10
20
20
40
40
ENDCHAR
STARTCHAR char56
ENCODING 56
SWIDTH 576 0
DWIDTH 6 0
BBX 4 7 1 0
BITMAP
60
90
90
60
90
90
60
ENDCHAR
STARTCHAR char57
ENCODING 57
SWIDTH 576 0
DWIDTH 6 0
BBX 4 7 1 0
BITMAP
60
90
90
70
10
90
60
ENDCHAR
STARTCHAR char58
ENCODING 58
SWIDTH 576 0
DWIDTH 6 0
BBX 1 6 2 0
BITMAP
80
80
00
00
80
80
ENDCHAR
STARTCHAR char59
ENCODING 59
SWIDTH 576 0
DWIDTH 6 0
BBX 2 8 1 -2
BITMAP
40
40
00
00
40
40
40
80
ENDCHAR
STARTCHAR char60
ENCODING 60
SWIDTH 576 0
DWIDTH 6 0
BBX 3 5 2 1
BITMAP
20
40
80
40
20
ENDCHAR
STARTCHAR char61
ENCODING 61
SWIDTH 576 0
DWIDTH 6 0
BBX 4 3 1 2
BITMAP
F0
00
F0
ENDCHAR
STARTCHAR char62
ENCODING 62
SWIDTH 576 0
DWIDTH 6 0
BBX 3 5 1 1
BITMAP
80
40
20
40
80
ENDCHAR
STARTCHAR char63
ENCODING 63
SWIDTH 576 0
DWIDTH 6 0
BBX 4 7 1 0
BITMAP
60
90
10
20
40
00
40
ENDCHAR
STARTCHAR char64
ENCODING 64
SWIDTH 576 0
DWIDTH 6 0
BBX 4 7 1 0
BITMAP
60
90
90
B0
B0
80
70
ENDCHAR
STARTCHAR char65
ENCODING 65
SWIDTH 576 0
DWIDTH 6 0
BBX 4 7 1 0
BITMAP
60
90
90
90
F0
90
90
ENDCHAR
STARTCHAR char66
ENCODING 66
SWIDTH 576 0
DWIDTH 6 0
BBX 4 7 1 0
BITMAP
E0
90
90
E0
90
90
E0
ENDCHAR
STARTCHAR char67
ENCODING 67
SWIDTH 576 0
DWIDTH 6 0
BBX 4 7 1 0
BITMAP
60
90
80
80
80
90
60
ENDCHAR
STARTCHAR char68
ENCODING 68
SWIDTH 576 0
DWIDTH 6 0
BBX 4 7 1 0
BITMAP
E0
90
90
90
90
90
E0
ENDCHAR
STARTCHAR char69
ENCODING 69
SWIDTH 576 0
DWIDTH 6 0
BBX 4 7 1 0
BITMAP
F0
80
80
E0
80
80
F0
ENDCHAR
STARTCHAR char70
ENCODING 70
SWIDTH 576 0
DWIDTH 6 0
BBX 4 7 1 0
BITMAP
F0
80
80
E0
80
80
80
ENDCHAR
STARTCHAR char71
ENCODING 71
SWIDTH 576 0
DWIDTH 6 0
BBX 4 7 1 0
BITMAP
60
90
80
B0
90
90
60
ENDCHAR
STARTCHAR char72
ENCODING 72
SWIDTH 576 0
DWIDTH 6 0
BBX 4 7 1 0
BITMAP
90
90
90
F0
90
90
90
ENDCHAR
STARTCHAR char73
ENCODING 73
SWIDTH 576 0
DWIDTH 6 0
BBX 3 7 2 0
BITMAP
E0
40
40
40
40
40
E0
ENDCHAR
STARTCHAR char74
ENCODING 74
SWIDTH 576 0
DWIDTH 6 0
BBX 4 7 1 0
BITMAP
70
10
10
10
10
90
60
ENDCHAR
STARTCHAR char75
ENCODING 75
SWIDTH 576 0
DWIDTH 6 0
BBX 5 7 1 0
BITMAP
88
90
A0
C0
A0
90
88
ENDCHAR
STARTCHAR char76
ENCODING 76
SWIDTH 576 0
DWIDTH 6 0
BBX 4 7 1 0
BITMAP
80
80
80
80
80
80
F0
ENDCHAR
STARTCHAR char77
ENCODING 77
SWIDTH 576 0
DWIDTH 6 0
BBX 4 7 1 0
BITMAP
90
F0
B0
90
90
90
90
ENDCHAR
STARTCHAR char78
ENCODING 78
SWIDTH 576 0
DWIDTH 6 0
BBX 4 7 1 0
BITMAP
90
D0
D0
B0
B0
90
90
ENDCHAR
STARTCHAR char79
ENCODING 79
SWIDTH 576 0
DWIDTH 6 0
BBX 4 7 1 0
BITMAP
60
90
90
90
90
90
60
ENDCHAR
STARTCHAR char80
ENCODING 80
SWIDTH 576 0
DWIDTH 6 0
BBX 4 7 1 0
BITMAP
E0
90
90
E0
80
80
80
ENDCHAR
STARTCHAR char81
ENCODING 81
SWIDTH 576 0
DWIDTH 6 0
BBX 4 8 1 -1
BITMAP
60
90
90
90
90
D0
60
10
ENDCHAR
STARTCHAR char82
ENCODING 82
SWIDTH 576 0
DWIDTH 6 0
BBX 4 7 1 0
BITMAP
E0
90
90
E0
90
90
90
ENDCHAR
STARTCHAR char83
ENCODING 83
SWIDTH 576 0
DWIDTH 6 0
BBX 4 7 1 0
BITMAP
60
90
80
60
10
90
60
ENDCHAR
STARTCHAR char84
ENCODING 84
SWIDTH 576 0
DWIDTH 6 0
BBX 5 7 1 0
BITMAP
F8
20
20
20
20
20
20
ENDCHAR
STARTCHAR char85
ENCODING 85
SWIDTH 576 0
DWIDTH 6 0
BBX 4 7 1 0
BITMAP
90
90
90
90
90
90
60
ENDCHAR
STARTCHAR char86
ENCODING 86
SWIDTH 576 0
DWIDTH 6 0
BBX 4 7 1 0
BITMAP
90
90
90
90
90
60
60
ENDCHAR
STARTCHAR char87
ENCODING 87
SWIDTH 576 0
DWIDTH 6 0
BBX 4 7 1 0
BITMAP
90
90
90
90
B0
F0
90
ENDCHAR
STARTCHAR char88
ENCODING 88
SWIDTH 576 0
DWIDTH 6 0
BBX 4 7 1 0
BITMAP
90
90
60
60
60
90
90
ENDCHAR
STARTCHAR char89
ENCODING 89
SWIDTH 576 0
DWIDTH 6 0
BBX 5 7 1 0
BITMAP
88
88
50
20
20
20
20
ENDCHAR
STARTCHAR char90
ENCODING 90
SWIDTH 576 0
DWIDTH 6 0
BBX 4 7 1 0
BITMAP
F0
10
20
40
80
80
F0
ENDCHAR
STARTCHAR char91
ENCODING 91
SWIDTH 576 0
DWIDTH 6 0
BBX 3 9 2 -1
BITMAP
E0
80
80
80
80
80
80
80
E0
ENDCHAR
STARTCHAR char92
ENCODING 92
SWIDTH 576 0
DWIDTH 6 0
BBX 4 8 1 -1
BITMAP
80
80
40
40
20
20
10
10
ENDCHAR
STARTCHAR char93
ENCODING 93
SWIDTH 576 0
DWIDTH 6 0
BBX 3 9 1 -1
BITMAP
E0
20
20
20
20
20
20
20
E0
ENDCHAR
STARTCHAR char94
ENCODING 94
SWIDTH 576 0
DWIDTH 6 0
BBX 5 3 1 4
BITMAP
20
50
88
ENDCHAR
STARTCHAR char95
ENCODING 95
SWIDTH 576 0
DWIDTH 6 0
BBX 6 1 0 -1
BITMAP
FC
ENDCHAR
STARTCHAR char96
ENCODING 96
SWIDTH 576 0
DWIDTH 6 0
BBX 2 3 2 5
BITMAP
40
80
80
ENDCHAR
STARTCHAR char97
ENCODING 97
SWIDTH 576 0
DWIDTH 6 0
BBX 4 6 1 0
BITMAP
60
90
90
90
B0
50
ENDCHAR
STARTCHAR char98
ENCODING 98
SWIDTH 576 0
DWIDTH 6 0
BBX 4 8 1 0
BITMAP
80
80
E0
90
90
90
90
E0
ENDCHAR
STARTCHAR char99
ENCODING 99
SWIDTH 576 0
DWIDTH 6 0
BBX 4 6 1 0
BITMAP
60
90
80
80
90
60
ENDCHAR
STARTCHAR char100
ENCODING 100
SWIDTH 576 0
DWIDTH 6 0
BBX 4 8 1 0
BITMAP
10
10
70
90
90
90
B0
50
ENDCHAR
STARTCHAR char101
ENCODING 101
SWIDTH 576 0
DWIDTH 6 0
BBX 4 6 1 0
BITMAP
60
90
F0
80
90
60
ENDCHAR
STARTCHAR char102
ENCODING 102
SWIDTH 576 0
DWIDTH 6 0
BBX 4 8 1 0
BITMAP
30
40
F0
40
40
40
40
40
ENDCHAR
STARTCHAR char103
ENCODING 103
SWIDTH 576 0
DWIDTH 6 0
BBX 4 8 1 -2
BITMAP
70
90
90
90
B0
50
10
60
ENDCHAR
STARTCHAR char104
ENCODING 104
SWIDTH 576 0
DWIDTH 6 0
BBX 4 8 1 0
BITMAP
80
80
A0
D0
90
90
90
90
ENDCHAR
STARTCHAR char105
ENCODING 105
SWIDTH 576 0
DWIDTH 6 0
BBX 3 8 2 0
BITMAP
40
00
C0
40
40
40
40
E0
ENDCHAR
STARTCHAR char106
ENCODING 106
SWIDTH 576 0
DWIDTH 6 0
BBX 3 10 1 -2
BITMAP
20
00
20
20
20
20
20
20
20
C0
ENDCHAR
STARTCHAR char107
ENCODING 107
SWIDTH 576 0
DWIDTH 6 0
BBX 4 8 1 0
BITMAP
80
80
90
A0
C0
A0
90
90
ENDCHAR
STARTCHAR char108
ENCODING 108
SWIDTH 576 0
DWIDTH 6 0
BBX 1 8 3 0
BITMAP
80
80
80
80
80
80
80
80
ENDCHAR
STARTCHAR char109
ENCODING 109
SWIDTH 576 0
DWIDTH 6 0
BBX 4 6 1 0
BITMAP
90
F0
B0
90
90
90
ENDCHAR
STARTCHAR char110
ENCODING 110
SWIDTH 576 0
DWIDTH 6 0
BBX 4 6 1 0
BITMAP
A0
D0
90
90
90
90
ENDCHAR
STARTCHAR char111
ENCODING 111
SWIDTH 576 0
DWIDTH 6 0
BBX 4 6 1 0
BITMAP
60
90
90
90
90
60
ENDCHAR
STARTCHAR char112
ENCODING 112
SWIDTH 576 0
DWIDTH 6 0
BBX 4 8 1 -2
BITMAP
E0
90
90
90
90
E0
80
80
ENDCHAR
STARTCHAR char113
ENCODING 113
SWIDTH 576 0
DWIDTH 6 0
BBX 4 8 1 -2
BITMAP
70
90
90
90
B0
50
10
10
ENDCHAR
STARTCHAR char114
ENCODING 114
SWIDTH 576 0
DWIDTH 6 0
BBX 4 6 1 0
BITMAP
A0
D0
80
80
80
80
ENDCHAR
STARTCHAR char115
ENCODING 115
SWIDTH 576 0
DWIDTH 6 0
BBX 4 6 1 0
BITMAP
60
90
60
10
90
60
ENDCHAR
STARTCHAR char116
ENCODING 116
SWIDTH 576 0
DWIDTH 6 0
BBX 4 7 1 0
BITMAP
40
F0
40
40
40
40
20
ENDCHAR
STARTCHAR char117
ENCODING 117
SWIDTH 576 0
DWIDTH 6 0
BBX 4 6 1 0
BITMAP
90
90
90
90
B0
50
ENDCHAR
STARTCHAR char118
ENCODING 118
SWIDTH 576 0
DWIDTH 6 0
BBX 4 6 1 0
BITMAP
90
90
90
90
60
60
ENDCHAR
STARTCHAR char119
ENCODING 119
SWIDTH 576 0
DWIDTH 6 0
BBX 4 6 1 0
BITMAP
90
90
90
B0
F0
90
ENDCHAR
STARTCHAR char120
ENCODING 120
SWIDTH 576 0
DWIDTH 6 0
BBX 4 6 1 0
BITMAP
90
90
60
90
90
90
ENDCHAR
STARTCHAR char121
ENCODING 121
SWIDTH 576 0
DWIDTH 6 0
BBX 4 8 1 -2
BITMAP
90
90
90
90
90
70
10
60
ENDCHAR
STARTCHAR char122
ENCODING 122
SWIDTH 576 0
DWIDTH 6 0
BBX 4 6 1 0
BITMAP
F0
10
20
40
80
F0
ENDCHAR
STARTCHAR char123
ENCODING 123
SWIDTH 576 0
DWIDTH 6 0
BBX 5 9 0 -1
BITMAP
18
20
20
20
C0
20
20
20
18
ENDCHAR
STARTCHAR char124
ENCODING 124
SWIDTH 576 0
DWIDTH 6 0
BBX 1 9 3 -1
BITMAP
80
80
80
80
80
80
80
80
80
ENDCHAR
STARTCHAR char125
ENCODING 125
SWIDTH 576 0
DWIDTH 6 0
BBX 5 9 1 -1
BITMAP
C0
20
20
20
18
20
20
20
C0
ENDCHAR
STARTCHAR char126
ENCODING 126
SWIDTH 576 0
DWIDTH 6 0
BBX 6 2 0 3
BITMAP
64
98
ENDCHAR
STARTCHAR char127
ENCODING 127
SWIDTH 576 0
DWIDTH 6 0
BBX 4 8 1 0
BITMAP
60
60
60
90
90
90
90
F0
ENDCHAR
STARTCHAR char171
ENCODING 171
SWIDTH 576 0
DWIDTH 6 0
BBX 4 8 1 0
BITMAP
80
90
A0
40
B0
10
20
30
ENDCHAR
STARTCHAR char172
ENCODING 172
SWIDTH 576 0
DWIDTH 6 0
BBX 4 8 1 0
BITMAP
80
90
A0
40
90
50
70
10
ENDCHAR
STARTCHAR char173
ENCODING 173
SWIDTH 576 0
DWIDTH 6 0
BBX 1 7 2 0
BITMAP
80
00
80
80
80
80
80
ENDCHAR
STARTCHAR char174
ENCODING 174
SWIDTH 576 0
DWIDTH 6 0
BBX 5 5 0 1
BITMAP
28
50
A0
50
28
ENDCHAR
STARTCHAR char175
ENCODING 175
SWIDTH 576 0
DWIDTH 6 0
BBX 5 5 1 1
BITMAP
A0
50
28
50
A0
ENDCHAR
STARTCHAR char176
ENCODING 176
SWIDTH 576 0
DWIDTH 6 0
BBX 6 11 0 -2
BITMAP
48
24
90
48
24
90
48
24
90
48
24
ENDCHAR
STARTCHAR char177
ENCODING 177
SWIDTH 576 0
DWIDTH 6 0
BBX 6 11 0 -2
BITMAP
54
A8
54
A8
54
A8
54
A8
54
A8
54
ENDCHAR
STARTCHAR char178
ENCODING 178
SWIDTH 576 0
DWIDTH 6 0
BBX 6 11 0 -2
BITMAP
6C
B4
D8
6C
B4
D8
6C
B4
D8
6C
B4
ENDCHAR
STARTCHAR char179
ENCODING 179
SWIDTH 576 0
DWIDTH 6 0
BBX 1 11 3 -2
BITMAP
80
80
80
80
80
80
80
80
80
80
80
ENDCHAR
STARTCHAR char180
ENCODING 180
SWIDTH 576 0
DWIDTH 6 0
BBX 4 11 0 -2
BITMAP
10
10
10
10
10
F0
10
10
10
10
10
ENDCHAR
STARTCHAR char181
ENCODING 181
SWIDTH 576 0
DWIDTH 6 0
BBX 4 11 0 -2
BITMAP
10
10
10
10
F0
10
F0
10
10
10
10
ENDCHAR
STARTCHAR char182
ENCODING 182
SWIDTH 576 0
DWIDTH 6 0
BBX 5 11 0 -2
BITMAP
28
28
28
28
28
E8
28
28
28
28
28
ENDCHAR
STARTCHAR char183
ENCODING 183
SWIDTH 576 0
DWIDTH 6 0
BBX 5 6 0 -2
BITMAP
F8
28
28
28
28
28
ENDCHAR
STARTCHAR char184
ENCODING 184
SWIDTH 576 0
DWIDTH 6 0
BBX 4 7 0 -2
BITMAP
F0
10
F0
10
10
10
10
ENDCHAR
STARTCHAR char185
ENCODING 185
SWIDTH 576 0
DWIDTH 6 0
BBX 5 11 0 -2
BITMAP
28
28
28
28
E8
08
E8
28
28
28
28
ENDCHAR
STARTCHAR char186
ENCODING 186
SWIDTH 576 0
DWIDTH 6 0
BBX 3 11 2 -2
BITMAP
A0
A0
A0
A0
A0
A0
A0
A0
A0
A0
A0
ENDCHAR
STARTCHAR char187
ENCODING 187
SWIDTH 576 0
DWIDTH 6 0
BBX 5 7 0 -2
BITMAP
F8
08
E8
28
28
28
28
ENDCHAR
STARTCHAR char188
ENCODING 188
SWIDTH 576 0
DWIDTH 6 0
BBX 5 7 0 2
BITMAP
28
28
28
28
E8
08
F8
ENDCHAR
STARTCHAR char189
ENCODING 189
SWIDTH 576 0
DWIDTH 6 0
BBX 5 6 0 3
BITMAP
28
28
28
28
28
F8
ENDCHAR
STARTCHAR char190
ENCODING 190
SWIDTH 576 0
DWIDTH 6 0
BBX 4 7 0 2
BITMAP
10
10
10
10
F0
10
F0
ENDCHAR
STARTCHAR char191
ENCODING 191
SWIDTH 576 0
DWIDTH 6 0
BBX 4 6 0 -2
BITMAP
F0
10
10
10
10
10
ENDCHAR
STARTCHAR char192
ENCODING 192
SWIDTH 576 0
DWIDTH 6 0
BBX 3 6 3 3
BITMAP
80
80
80
80
80
E0
ENDCHAR
STARTCHAR char193
ENCODING 193
SWIDTH 576 0
DWIDTH 6 0
BBX 6 6 0 3
BITMAP
10
10
10
10
10
FC
ENDCHAR
STARTCHAR char194
ENCODING 194
SWIDTH 576 0
DWIDTH 6 0
BBX 6 6 0 -2
BITMAP
FC
10
10
10
10
10
ENDCHAR
STARTCHAR char195
ENCODING 195
SWIDTH 576 0
DWIDTH 6 0
BBX 3 11 3 -2
BITMAP
80
80
80
80
80
E0
80
80
80
80
80
ENDCHAR
STARTCHAR char196
ENCODING 196
SWIDTH 576 0
DWIDTH 6 0
BBX 6 1 0 3
BITMAP
FC
ENDCHAR
STARTCHAR char197
ENCODING 197
SWIDTH 576 0
DWIDTH 6 0
BBX 6 11 0 -2
BITMAP
10
10
10
10
10
FC
10
10
10
10
10
ENDCHAR
STARTCHAR char198
ENCODING 198
SWIDTH 576 0
DWIDTH 6 0
BBX 3 11 3 -2
BITMAP
80
80
80
80
E0
80
E0
80
80
80
80
ENDCHAR
STARTCHAR char199
ENCODING 199
SWIDTH 576 0
DWIDTH 6 0
BBX 4 11 2 -2
BITMAP
A0
A0
A0
A0
A0
B0
A0
A0
A0
A0
A0
ENDCHAR
STARTCHAR char200
ENCODING 200
SWIDTH 576 0
DWIDTH 6 0
BBX 4 7 2 2
BITMAP
A0
A0
A0
A0
B0
80
F0
ENDCHAR
STARTCHAR char201
ENCODING 201
SWIDTH 576 0
DWIDTH 6 0
BBX 4 7 2 -2
BITMAP
F0
80
B0
A0
A0
A0
A0
ENDCHAR
STARTCHAR char202
ENCODING 202
SWIDTH 576 0
DWIDTH 6 0
BBX 6 7 0 2
BITMAP
28
28
28
28
EC
00
FC
ENDCHAR
STARTCHAR char203
ENCODING 203
SWIDTH 576 0
DWIDTH 6 0
BBX 6 7 0 -2
BITMAP
FC
00
EC
28
28
28
28
ENDCHAR
STARTCHAR char204
ENCODING 204
SWIDTH 576 0
DWIDTH 6 0
BBX 4 11 2 -2
BITMAP
A0
A0
A0
A0
B0
80
B0
A0
A0
A0
A0
ENDCHAR
STARTCHAR char205
ENCODING 205
SWIDTH 576 0
DWIDTH 6 0
BBX 6 3 0 2
BITMAP
FC
00
FC
ENDCHAR
STARTCHAR char206
ENCODING 206
SWIDTH 576 0
DWIDTH 6 0
BBX 6 11 0 -2
BITMAP
28
28
28
28
EC
00
EC
28
28
28
28
ENDCHAR
STARTCHAR char207
ENCODING 207
SWIDTH 576 0
DWIDTH 6 0
BBX 6 7 0 2
BITMAP
10
10
10
10
FC
00
FC
ENDCHAR
STARTCHAR char208
ENCODING 208
SWIDTH 576 0
DWIDTH 6 0
BBX 6 6 0 3
BITMAP
28
28
28
28
28
FC
ENDCHAR
STARTCHAR char209
ENCODING 209
SWIDTH 576 0
DWIDTH 6 0
BBX 6 7 0 -2
BITMAP
FC
00
FC
10
10
10
10
ENDCHAR
STARTCHAR char210
ENCODING 210
SWIDTH 576 0
DWIDTH 6 0
BBX 6 6 0 -2
BITMAP
FC
28
28
28
28
28
ENDCHAR
STARTCHAR char211
ENCODING 211
SWIDTH 576 0
DWIDTH 6 0
BBX 4 6 2 3
BITMAP
A0
A0
A0
A0
A0
F0
ENDCHAR
STARTCHAR char212
ENCODING 212
SWIDTH 576 0
DWIDTH 6 0
BBX 3 7 3 2
BITMAP
80
80
80
80
E0
80
E0
ENDCHAR
STARTCHAR char213
ENCODING 213
SWIDTH 576 0
DWIDTH 6 0
BBX 3 7 3 -2
BITMAP
E0
80
E0
80
80
80
80
ENDCHAR
STARTCHAR char214
ENCODING 214
SWIDTH 576 0
DWIDTH 6 0
BBX 4 6 2 -2
BITMAP
F0
A0
A0
A0
A0
A0
ENDCHAR
STARTCHAR char215
ENCODING 215
SWIDTH 576 0
DWIDTH 6 0
BBX 6 11 0 -2
BITMAP
28
28
28
28
28
FC
28
28
28
28
28
ENDCHAR
STARTCHAR char216
ENCODING 216
SWIDTH 576 0
DWIDTH 6 0
BBX 6 11 0 -2
BITMAP
10
10
10
10
FC
10
FC
10
10
10
10
ENDCHAR
STARTCHAR char217
ENCODING 217
SWIDTH 576 0
DWIDTH 6 0
BBX 4 6 0 3
BITMAP
10
10
10
10
10
F0
ENDCHAR
STARTCHAR char218
ENCODING 218
SWIDTH 576 0
DWIDTH 6 0
BBX 3 6 3 -2
BITMAP
E0
80
80
80
80
80
ENDCHAR
STARTCHAR char219
ENCODING 219
SWIDTH 576 0
DWIDTH 6 0
BBX 6 11 0 -2
BITMAP
FC
FC
FC
FC
FC
FC
FC
FC
FC
FC
FC
ENDCHAR
STARTCHAR char220
ENCODING 220
SWIDTH 576 0
DWIDTH 6 0
BBX 6 5 0 -2
BITMAP
FC
FC
FC
FC
FC
ENDCHAR
STARTCHAR char221
ENCODING 221
SWIDTH 576 0
DWIDTH 6 0
BBX 3 11 0 -2
BITMAP
E0
E0
E0
E0
E0
E0
E0
E0
E0
E0
E0
ENDCHAR
STARTCHAR char222
ENCODING 222
SWIDTH 576 0
DWIDTH 6 0
BBX 3 11 3 -2
BITMAP
E0
E0
E0
E0
E0
E0
E0
E0
E0
E0
E0
ENDCHAR
STARTCHAR char223
ENCODING 223
SWIDTH 576 0
DWIDTH 6 0
BBX 6 6 0 3
BITMAP
FC
FC
FC
FC
FC
FC
ENDCHAR
STARTCHAR char224
ENCODING 224
SWIDTH 576 0
DWIDTH 6 0
BBX 4 5 1 1
BITMAP
50
A0
A0
A0
50
ENDCHAR
STARTCHAR char225
ENCODING 225
SWIDTH 576 0
DWIDTH 6 0
BBX 4 8 1 0
BITMAP
60
90
A0
90
90
A0
80
80
ENDCHAR
STARTCHAR char226
ENCODING 226
SWIDTH 576 0
DWIDTH 6 0
BBX 4 8 1 0
BITMAP
F0
90
80
80
80
80
80
80
ENDCHAR
STARTCHAR char227
ENCODING 227
SWIDTH 576 0
DWIDTH 6 0
BBX 6 6 0 0
BITMAP
FC
48
48
48
48
48
ENDCHAR
STARTCHAR char228
ENCODING 228
SWIDTH 576 0
DWIDTH 6 0
BBX 4 7 1 0
BITMAP
F0
40
20
10
20
40
F0
ENDCHAR
STARTCHAR char229
ENCODING 229
SWIDTH 576 0
DWIDTH 6 0
BBX 4 5 1 1
BITMAP
70
A0
A0
A0
40
ENDCHAR
STARTCHAR char230
ENCODING 230
SWIDTH 576 0
DWIDTH 6 0
BBX 4 8 1 0
BITMAP
50
50
50
50
50
60
40
80
ENDCHAR
STARTCHAR char231
ENCODING 231
SWIDTH 576 0
DWIDTH 6 0
BBX 4 6 1 0
BITMAP
50
A0
20
20
20
20
ENDCHAR
STARTCHAR char232
ENCODING 232
SWIDTH 576 0
DWIDTH 6 0
BBX 5 8 1 0
BITMAP
F8
20
70
88
88
70
20
F8
ENDCHAR
STARTCHAR char233
ENCODING 233
SWIDTH 576 0
DWIDTH 6 0
BBX 4 7 1 0
BITMAP
60
90
90
F0
90
90
60
ENDCHAR
STARTCHAR char234
ENCODING 234
SWIDTH 576 0
DWIDTH 6 0
BBX 6 7 0 0
BITMAP
78
84
84
84
48
48
CC
ENDCHAR
STARTCHAR char235
ENCODING 235
SWIDTH 576 0
DWIDTH 6 0
BBX 4 7 1 0
BITMAP
60
80
40
60
90
90
60
ENDCHAR
STARTCHAR char236
ENCODING 236
SWIDTH 576 0
DWIDTH 6 0
BBX 5 5 1 1
BITMAP
70
A8
A8
A8
70
ENDCHAR
STARTCHAR char237
ENCODING 237
SWIDTH 576 0
DWIDTH 6 0
BBX 5 9 1 -1
BITMAP
08
08
70
B8
A8
E8
70
80
80
ENDCHAR
STARTCHAR char238
ENCODING 238
SWIDTH 576 0
DWIDTH 6 0
BBX 4 9 1 -1
BITMAP
30
40
80
80
E0
80
80
40
30
ENDCHAR
STARTCHAR char239
ENCODING 239
SWIDTH 576 0
DWIDTH 6 0
BBX 4 8 1 0
BITMAP
60
90
90
90
90
90
90
90
ENDCHAR
STARTCHAR char240
ENCODING 240
SWIDTH 576 0
DWIDTH 6 0
BBX 4 5 1 1
BITMAP
F0
00
F0
00
F0
ENDCHAR
STARTCHAR char241
ENCODING 241
SWIDTH 576 0
DWIDTH 6 0
BBX 3 5 2 1
BITMAP
40
E0
40
00
E0
ENDCHAR
STARTCHAR char242
ENCODING 242
SWIDTH 576 0
DWIDTH 6 0
BBX 4 7 1 1
BITMAP
40
20
10
20
40
00
F0
ENDCHAR
STARTCHAR char243
ENCODING 243
SWIDTH 576 0
DWIDTH 6 0
BBX 4 7 1 1
BITMAP
20
40
80
40
20
00
F0
ENDCHAR
STARTCHAR char244
ENCODING 244
SWIDTH 576 0
DWIDTH 6 0
BBX 3 8 2 0
BITMAP
40
A0
A0
80
80
80
80
80
ENDCHAR
STARTCHAR char245
ENCODING 245
SWIDTH 576 0
DWIDTH 6 0
BBX 3 8 2 0
BITMAP
20
20
20
20
20
A0
A0
40
ENDCHAR
STARTCHAR char246
ENCODING 246
SWIDTH 576 0
DWIDTH 6 0
BBX 5 7 1 0
BITMAP
20
20
00
F8
00
20
20
ENDCHAR
STARTCHAR char247
ENCODING 247
SWIDTH 576 0
DWIDTH 6 0
BBX 4 5 1 2
BITMAP
50
A0
00
50
A0
ENDCHAR
STARTCHAR char248
ENCODING 248
SWIDTH 576 0
DWIDTH 6 0
BBX 3 4 2 5
BITMAP
E0
40
A0
40
ENDCHAR
STARTCHAR char249
ENCODING 249
SWIDTH 576 0
DWIDTH 6 0
BBX 2 2 2 2
BITMAP
C0
C0
ENDCHAR
STARTCHAR char250
ENCODING 250
SWIDTH 576 0
DWIDTH 6 0
BBX 2 1 2 2
BITMAP
C0
ENDCHAR
STARTCHAR char251
ENCODING 251
SWIDTH 576 0
DWIDTH 6 0
BBX 5 10 1 -1
BITMAP
38
20
20
20
20
20
20
A0
60
20
ENDCHAR
STARTCHAR char252
ENCODING 252
SWIDTH 576 0
DWIDTH 6 0
BBX 4 4 0 3
BITMAP
A0
D0
90
90
ENDCHAR
STARTCHAR char253
ENCODING 253
SWIDTH 576 0
DWIDTH 6 0
BBX 3 4 2 3
BITMAP
C0
20
40
E0
ENDCHAR
STARTCHAR char254
ENCODING 254
SWIDTH 576 0
DWIDTH 6 0
BBX 4 4 1 2
BITMAP
F0
F0
F0
F0
ENDCHAR
ENDFONT
